<svg xmlns="http://www.w3.org/2000/svg" xmlns:xlink="http://www.w3.org/1999/xlink" x="0px" y="0px" width="64px" height="64px" viewBox="0 0 64 64"><g stroke-width="3" transform="translate(0.5, 0.5)"><path fill="none" stroke="#444444" stroke-width="3" stroke-linecap="square" stroke-miterlimit="10" d="M52.5,40
	C36.7,40,24,27.3,24,11.5c0-2.6,0.4-5.1,1-7.5C12.9,7.3,4,18.3,4,31.5C4,47.2,16.8,60,32.5,60c13.1,0,24.2-8.9,27.5-21
	C57.6,39.7,55.1,40,52.5,40z" stroke-linejoin="miter"></path>
<line data-color="color-2" fill="none" stroke="#444444" stroke-width="3" stroke-linecap="square" stroke-miterlimit="10" x1="42" y1="4" x2="42" y2="12" stroke-linejoin="miter"></line>
<line data-color="color-2" fill="none" stroke="#444444" stroke-width="3" stroke-linecap="square" stroke-miterlimit="10" x1="38" y1="8" x2="46" y2="8" stroke-linejoin="miter"></line>
<line data-color="color-2" fill="none" stroke="#444444" stroke-width="3" stroke-linecap="square" stroke-miterlimit="10" x1="56" y1="20" x2="56" y2="28" stroke-linejoin="miter"></line>
<line data-color="color-2" fill="none" stroke="#444444" stroke-width="3" stroke-linecap="square" stroke-miterlimit="10" x1="52" y1="24" x2="60" y2="24" stroke-linejoin="miter"></line></g></svg>